<mxfile host="65bd71144e">
    <diagram id="uCEWBPaqf4rtOIa3JMkl" name="Page-1">
        <mxGraphModel dx="630" dy="1560" grid="1" gridSize="10" guides="1" tooltips="1" connect="1" arrows="1" fold="1" page="1" pageScale="1" pageWidth="827" pageHeight="1169" math="0" shadow="0">
            <root>
                <mxCell id="0"/>
                <mxCell id="1" parent="0"/>
                <mxCell id="2" value="D_1" style="ellipse;whiteSpace=wrap;html=1;strokeColor=#00FF00;" vertex="1" parent="1">
                    <mxGeometry x="160" y="40" width="80" height="80" as="geometry"/>
                </mxCell>
                <mxCell id="6" value="D_2&lt;br&gt;" style="ellipse;whiteSpace=wrap;html=1;strokeColor=#00FF00;" vertex="1" parent="1">
                    <mxGeometry x="160" y="200" width="80" height="80" as="geometry"/>
                </mxCell>
                <mxCell id="7" value="D_3" style="ellipse;whiteSpace=wrap;html=1;strokeColor=#00FF00;" vertex="1" parent="1">
                    <mxGeometry x="160" y="360" width="80" height="80" as="geometry"/>
                </mxCell>
                <mxCell id="8" value="D_4" style="ellipse;whiteSpace=wrap;html=1;strokeColor=#00FF00;" vertex="1" parent="1">
                    <mxGeometry x="320" y="440" width="80" height="80" as="geometry"/>
                </mxCell>
                <mxCell id="9" value="A_12&lt;br&gt;D_5" style="ellipse;whiteSpace=wrap;html=1;" vertex="1" parent="1">
                    <mxGeometry x="480" y="520" width="80" height="80" as="geometry"/>
                </mxCell>
                <mxCell id="10" value="D_6" style="ellipse;whiteSpace=wrap;html=1;strokeColor=#00FF00;" vertex="1" parent="1">
                    <mxGeometry x="640" y="600" width="80" height="80" as="geometry"/>
                </mxCell>
                <mxCell id="11" value="B_5&lt;br&gt;D_7" style="ellipse;whiteSpace=wrap;html=1;" vertex="1" parent="1">
                    <mxGeometry x="800" y="680" width="80" height="80" as="geometry"/>
                </mxCell>
                <mxCell id="12" value="D_8" style="ellipse;whiteSpace=wrap;html=1;strokeColor=#00FF00;" vertex="1" parent="1">
                    <mxGeometry x="960" y="760" width="80" height="80" as="geometry"/>
                </mxCell>
                <mxCell id="13" value="D_9" style="ellipse;whiteSpace=wrap;html=1;strokeColor=#00FF00;" vertex="1" parent="1">
                    <mxGeometry x="1120" y="840" width="80" height="80" as="geometry"/>
                </mxCell>
                <mxCell id="14" value="D_10" style="ellipse;whiteSpace=wrap;html=1;strokeColor=#00FF00;" vertex="1" parent="1">
                    <mxGeometry x="1280" y="920" width="80" height="80" as="geometry"/>
                </mxCell>
                <mxCell id="15" value="D_11" style="ellipse;whiteSpace=wrap;html=1;strokeColor=#00FF00;" vertex="1" parent="1">
                    <mxGeometry x="1440" y="1000" width="80" height="80" as="geometry"/>
                </mxCell>
                <mxCell id="16" value="D_12" style="ellipse;whiteSpace=wrap;html=1;strokeColor=#00FF00;" vertex="1" parent="1">
                    <mxGeometry x="1440" y="1160" width="80" height="80" as="geometry"/>
                </mxCell>
                <mxCell id="17" value="D_13" style="ellipse;whiteSpace=wrap;html=1;strokeColor=#00FF00;" vertex="1" parent="1">
                    <mxGeometry x="1440" y="1320" width="80" height="80" as="geometry"/>
                </mxCell>
                <mxCell id="18" value="D_14" style="ellipse;whiteSpace=wrap;html=1;strokeColor=#00FF00;" vertex="1" parent="1">
                    <mxGeometry x="1440" y="1480" width="80" height="80" as="geometry"/>
                </mxCell>
                <mxCell id="19" value="D_15" style="ellipse;whiteSpace=wrap;html=1;strokeColor=#00FF00;" vertex="1" parent="1">
                    <mxGeometry x="1440" y="1640" width="80" height="80" as="geometry"/>
                </mxCell>
                <mxCell id="20" value="A_11" style="ellipse;whiteSpace=wrap;html=1;strokeColor=#FF0000;" vertex="1" parent="1">
                    <mxGeometry x="480" y="360" width="80" height="80" as="geometry"/>
                </mxCell>
                <mxCell id="21" value="A_10&lt;br&gt;C_5" style="ellipse;whiteSpace=wrap;html=1;" vertex="1" parent="1">
                    <mxGeometry x="480" y="200" width="80" height="80" as="geometry"/>
                </mxCell>
                <mxCell id="22" value="A_9" style="ellipse;whiteSpace=wrap;html=1;strokeColor=#FF0000;" vertex="1" parent="1">
                    <mxGeometry x="640" y="120" width="80" height="80" as="geometry"/>
                </mxCell>
                <mxCell id="23" value="A_8" style="ellipse;whiteSpace=wrap;html=1;strokeColor=#FF0000;" vertex="1" parent="1">
                    <mxGeometry x="800" y="40" width="80" height="80" as="geometry"/>
                </mxCell>
                <mxCell id="24" value="A_7&lt;br&gt;B_1" style="ellipse;whiteSpace=wrap;html=1;" vertex="1" parent="1">
                    <mxGeometry x="960" y="-40" width="80" height="80" as="geometry"/>
                </mxCell>
                <mxCell id="25" value="A_6" style="ellipse;whiteSpace=wrap;html=1;strokeColor=#FF0000;" vertex="1" parent="1">
                    <mxGeometry x="1120" y="40" width="80" height="80" as="geometry"/>
                </mxCell>
                <mxCell id="26" value="A_5" style="ellipse;whiteSpace=wrap;html=1;strokeColor=#FF0000;" vertex="1" parent="1">
                    <mxGeometry x="1280" y="120" width="80" height="80" as="geometry"/>
                </mxCell>
                <mxCell id="27" value="A_4" style="ellipse;whiteSpace=wrap;html=1;strokeColor=#FF0000;" vertex="1" parent="1">
                    <mxGeometry x="1440" y="200" width="80" height="80" as="geometry"/>
                </mxCell>
                <mxCell id="28" value="A_3" style="ellipse;whiteSpace=wrap;html=1;strokeColor=#FF0000;" vertex="1" parent="1">
                    <mxGeometry x="1600" y="280" width="80" height="80" as="geometry"/>
                </mxCell>
                <mxCell id="29" value="A_2" style="ellipse;whiteSpace=wrap;html=1;strokeColor=#FF0000;" vertex="1" parent="1">
                    <mxGeometry x="1760" y="360" width="80" height="80" as="geometry"/>
                </mxCell>
                <mxCell id="30" value="A_1" style="ellipse;whiteSpace=wrap;html=1;strokeColor=#FF0000;" vertex="1" parent="1">
                    <mxGeometry x="1760" y="520" width="80" height="80" as="geometry"/>
                </mxCell>
                <mxCell id="32" value="B_2" style="ellipse;whiteSpace=wrap;html=1;strokeColor=#00FFFF;" vertex="1" parent="1">
                    <mxGeometry x="960" y="120" width="80" height="80" as="geometry"/>
                </mxCell>
                <mxCell id="33" value="B_3" style="ellipse;whiteSpace=wrap;html=1;strokeColor=#00FFFF;" vertex="1" parent="1">
                    <mxGeometry x="960" y="360" width="80" height="80" as="geometry"/>
                </mxCell>
                <mxCell id="34" value="B_4" style="ellipse;whiteSpace=wrap;html=1;strokeColor=#00FFFF;" vertex="1" parent="1">
                    <mxGeometry x="800" y="520" width="80" height="80" as="geometry"/>
                </mxCell>
                <mxCell id="41" value="" style="endArrow=none;html=1;strokeColor=#00FF00;" edge="1" parent="1" source="6" target="2">
                    <mxGeometry width="50" height="50" relative="1" as="geometry">
                        <mxPoint x="370" y="230" as="sourcePoint"/>
                        <mxPoint x="420" y="180" as="targetPoint"/>
                    </mxGeometry>
                </mxCell>
                <mxCell id="42" value="" style="endArrow=none;html=1;strokeColor=#00FF00;" edge="1" parent="1" source="7" target="6">
                    <mxGeometry width="50" height="50" relative="1" as="geometry">
                        <mxPoint x="210" y="210" as="sourcePoint"/>
                        <mxPoint x="210" y="130" as="targetPoint"/>
                    </mxGeometry>
                </mxCell>
                <mxCell id="43" value="" style="endArrow=none;html=1;strokeColor=#00FF00;" edge="1" parent="1" source="8" target="7">
                    <mxGeometry width="50" height="50" relative="1" as="geometry">
                        <mxPoint x="210" y="370" as="sourcePoint"/>
                        <mxPoint x="210" y="290" as="targetPoint"/>
                    </mxGeometry>
                </mxCell>
                <mxCell id="44" value="" style="endArrow=none;html=1;" edge="1" parent="1" source="8" target="9">
                    <mxGeometry width="50" height="50" relative="1" as="geometry">
                        <mxPoint x="334.2229123599991" y="472.1114561799991" as="sourcePoint"/>
                        <mxPoint x="245.77708764000113" y="427.88854382000045" as="targetPoint"/>
                    </mxGeometry>
                </mxCell>
                <mxCell id="45" value="" style="endArrow=none;html=1;" edge="1" parent="1" source="9" target="10">
                    <mxGeometry width="50" height="50" relative="1" as="geometry">
                        <mxPoint x="405.77708763999374" y="507.88854381999727" as="sourcePoint"/>
                        <mxPoint x="494.22291236000615" y="552.1114561800032" as="targetPoint"/>
                    </mxGeometry>
                </mxCell>
                <mxCell id="46" value="" style="endArrow=none;html=1;" edge="1" parent="1" source="10" target="11">
                    <mxGeometry width="50" height="50" relative="1" as="geometry">
                        <mxPoint x="565.8231916728246" y="587.7960371535964" as="sourcePoint"/>
                        <mxPoint x="654.2229123600034" y="632.1114561800014" as="targetPoint"/>
                    </mxGeometry>
                </mxCell>
                <mxCell id="47" value="" style="endArrow=none;html=1;" edge="1" parent="1" source="11" target="12">
                    <mxGeometry width="50" height="50" relative="1" as="geometry">
                        <mxPoint x="1000" y="660" as="sourcePoint"/>
                        <mxPoint x="814.2229123600034" y="712.1114561800018" as="targetPoint"/>
                    </mxGeometry>
                </mxCell>
                <mxCell id="48" value="" style="endArrow=none;html=1;strokeColor=#00FF00;" edge="1" parent="1" source="12" target="13">
                    <mxGeometry width="50" height="50" relative="1" as="geometry">
                        <mxPoint x="885.8538603681384" y="747.734167493918" as="sourcePoint"/>
                        <mxPoint x="974.2229123600034" y="792.1114561800018" as="targetPoint"/>
                    </mxGeometry>
                </mxCell>
                <mxCell id="49" value="" style="endArrow=none;html=1;strokeColor=#00FF00;" edge="1" parent="1" source="13" target="14">
                    <mxGeometry width="50" height="50" relative="1" as="geometry">
                        <mxPoint x="1045.8538603681434" y="827.7341674939203" as="sourcePoint"/>
                        <mxPoint x="1134.2229123600034" y="872.1114561800018" as="targetPoint"/>
                    </mxGeometry>
                </mxCell>
                <mxCell id="50" value="" style="endArrow=none;html=1;strokeColor=#00FF00;" edge="1" parent="1" source="14" target="15">
                    <mxGeometry width="50" height="50" relative="1" as="geometry">
                        <mxPoint x="1205.8538603681336" y="907.7341674939157" as="sourcePoint"/>
                        <mxPoint x="1294.2229123600032" y="952.1114561800018" as="targetPoint"/>
                    </mxGeometry>
                </mxCell>
                <mxCell id="51" value="" style="endArrow=none;html=1;strokeColor=#00FF00;" edge="1" parent="1" source="16" target="15">
                    <mxGeometry width="50" height="50" relative="1" as="geometry">
                        <mxPoint x="1365.8538603681532" y="987.7341674939253" as="sourcePoint"/>
                        <mxPoint x="1454.2229123600032" y="1032.1114561800018" as="targetPoint"/>
                    </mxGeometry>
                </mxCell>
                <mxCell id="52" value="" style="endArrow=none;html=1;strokeColor=#00FF00;" edge="1" parent="1" source="17" target="16">
                    <mxGeometry width="50" height="50" relative="1" as="geometry">
                        <mxPoint x="1490" y="1170" as="sourcePoint"/>
                        <mxPoint x="1490" y="1090" as="targetPoint"/>
                    </mxGeometry>
                </mxCell>
                <mxCell id="53" value="" style="endArrow=none;html=1;strokeColor=#00FF00;" edge="1" parent="1" source="18" target="17">
                    <mxGeometry width="50" height="50" relative="1" as="geometry">
                        <mxPoint x="1490" y="1330" as="sourcePoint"/>
                        <mxPoint x="1610" y="1350" as="targetPoint"/>
                    </mxGeometry>
                </mxCell>
                <mxCell id="54" value="" style="endArrow=none;html=1;strokeColor=#00FF00;" edge="1" parent="1" source="19" target="18">
                    <mxGeometry width="50" height="50" relative="1" as="geometry">
                        <mxPoint x="1490" y="1490" as="sourcePoint"/>
                        <mxPoint x="1670" y="1600" as="targetPoint"/>
                    </mxGeometry>
                </mxCell>
                <mxCell id="55" value="A_13" style="ellipse;whiteSpace=wrap;html=1;strokeColor=#FF0000;" vertex="1" parent="1">
                    <mxGeometry x="480" y="680" width="80" height="80" as="geometry"/>
                </mxCell>
                <mxCell id="56" value="A_14" style="ellipse;whiteSpace=wrap;html=1;strokeColor=#FF0000;" vertex="1" parent="1">
                    <mxGeometry x="480" y="840" width="80" height="80" as="geometry"/>
                </mxCell>
                <mxCell id="57" value="" style="endArrow=none;html=1;" edge="1" parent="1" source="20" target="21">
                    <mxGeometry width="50" height="50" relative="1" as="geometry">
                        <mxPoint x="334.2229123600089" y="472.1114561800041" as="sourcePoint"/>
                        <mxPoint x="245.7770876399909" y="427.88854381999545" as="targetPoint"/>
                    </mxGeometry>
                </mxCell>
                <mxCell id="58" value="" style="endArrow=none;html=1;" edge="1" parent="1" source="9" target="20">
                    <mxGeometry width="50" height="50" relative="1" as="geometry">
                        <mxPoint x="530" y="370" as="sourcePoint"/>
                        <mxPoint x="530" y="290" as="targetPoint"/>
                    </mxGeometry>
                </mxCell>
                <mxCell id="59" value="" style="endArrow=none;html=1;" edge="1" parent="1" source="55" target="9">
                    <mxGeometry width="50" height="50" relative="1" as="geometry">
                        <mxPoint x="530" y="530" as="sourcePoint"/>
                        <mxPoint x="530" y="450" as="targetPoint"/>
                    </mxGeometry>
                </mxCell>
                <mxCell id="60" value="" style="endArrow=none;html=1;strokeColor=#FF0000;" edge="1" parent="1" source="56" target="55">
                    <mxGeometry width="50" height="50" relative="1" as="geometry">
                        <mxPoint x="530" y="690" as="sourcePoint"/>
                        <mxPoint x="530" y="610" as="targetPoint"/>
                    </mxGeometry>
                </mxCell>
                <mxCell id="61" value="" style="endArrow=none;html=1;" edge="1" parent="1" source="21" target="22">
                    <mxGeometry width="50" height="50" relative="1" as="geometry">
                        <mxPoint x="530" y="370" as="sourcePoint"/>
                        <mxPoint x="530" y="290" as="targetPoint"/>
                    </mxGeometry>
                </mxCell>
                <mxCell id="62" value="" style="endArrow=none;html=1;strokeColor=#FF0000;" edge="1" parent="1" source="22">
                    <mxGeometry width="50" height="50" relative="1" as="geometry">
                        <mxPoint x="565.7770876399966" y="232.11145618000182" as="sourcePoint"/>
                        <mxPoint x="804" y="98" as="targetPoint"/>
                    </mxGeometry>
                </mxCell>
                <mxCell id="63" value="" style="endArrow=none;html=1;" edge="1" parent="1" source="23" target="24">
                    <mxGeometry width="50" height="50" relative="1" as="geometry">
                        <mxPoint x="725.7770876399813" y="152.11145618000955" as="sourcePoint"/>
                        <mxPoint x="814" y="108" as="targetPoint"/>
                    </mxGeometry>
                </mxCell>
                <mxCell id="64" value="" style="endArrow=none;html=1;" edge="1" parent="1" source="24" target="25">
                    <mxGeometry width="50" height="50" relative="1" as="geometry">
                        <mxPoint x="885.7770876400027" y="72.11145617999841" as="sourcePoint"/>
                        <mxPoint x="974.1453070031732" y="27.732484036474034" as="targetPoint"/>
                    </mxGeometry>
                </mxCell>
                <mxCell id="65" value="" style="endArrow=none;html=1;strokeColor=#FF0000;" edge="1" parent="1" source="25" target="26">
                    <mxGeometry width="50" height="50" relative="1" as="geometry">
                        <mxPoint x="1045.7770876400027" y="27.88854382000136" as="sourcePoint"/>
                        <mxPoint x="1134.145307003167" y="72.26751596352301" as="targetPoint"/>
                    </mxGeometry>
                </mxCell>
                <mxCell id="66" value="" style="endArrow=none;html=1;strokeColor=#FF0000;" edge="1" parent="1" source="26" target="27">
                    <mxGeometry width="50" height="50" relative="1" as="geometry">
                        <mxPoint x="1430" y="60" as="sourcePoint"/>
                        <mxPoint x="1294.2620555019255" y="152.0333830938639" as="targetPoint"/>
                    </mxGeometry>
                </mxCell>
                <mxCell id="67" value="" style="endArrow=none;html=1;strokeColor=#FF0000;" edge="1" parent="1" source="27" target="28">
                    <mxGeometry width="50" height="50" relative="1" as="geometry">
                        <mxPoint x="1365.7770876399907" y="187.88854381999545" as="sourcePoint"/>
                        <mxPoint x="1454.2229123599914" y="232.11145617999568" as="targetPoint"/>
                    </mxGeometry>
                </mxCell>
                <mxCell id="68" value="" style="endArrow=none;html=1;strokeColor=#FF0000;" edge="1" parent="1" source="28" target="29">
                    <mxGeometry width="50" height="50" relative="1" as="geometry">
                        <mxPoint x="1525.845103431539" y="267.7518607470479" as="sourcePoint"/>
                        <mxPoint x="1614.2759933951102" y="312.0056855619814" as="targetPoint"/>
                    </mxGeometry>
                </mxCell>
                <mxCell id="69" value="" style="endArrow=none;html=1;strokeColor=#FF0000;" edge="1" parent="1" source="29" target="30">
                    <mxGeometry width="50" height="50" relative="1" as="geometry">
                        <mxPoint x="1685.8451034315567" y="347.751860747057" as="sourcePoint"/>
                        <mxPoint x="1774.2229123600032" y="392.11145618000137" as="targetPoint"/>
                    </mxGeometry>
                </mxCell>
                <mxCell id="70" value="" style="endArrow=none;html=1;" edge="1" parent="1" source="32" target="24">
                    <mxGeometry width="50" height="50" relative="1" as="geometry">
                        <mxPoint x="885.7770876399873" y="72.11145618000637" as="sourcePoint"/>
                        <mxPoint x="974.2229123600032" y="27.888543819998176" as="targetPoint"/>
                    </mxGeometry>
                </mxCell>
                <mxCell id="71" value="" style="endArrow=none;html=1;strokeColor=#00FFFF;" edge="1" parent="1" source="33" target="32">
                    <mxGeometry width="50" height="50" relative="1" as="geometry">
                        <mxPoint x="1010" y="130" as="sourcePoint"/>
                        <mxPoint x="1010" y="50" as="targetPoint"/>
                    </mxGeometry>
                </mxCell>
                <mxCell id="72" value="" style="endArrow=none;html=1;strokeColor=#00FFFF;" edge="1" parent="1" source="34" target="33">
                    <mxGeometry width="50" height="50" relative="1" as="geometry">
                        <mxPoint x="1010" y="370" as="sourcePoint"/>
                        <mxPoint x="1010" y="210" as="targetPoint"/>
                    </mxGeometry>
                </mxCell>
                <mxCell id="73" value="" style="endArrow=none;html=1;" edge="1" parent="1" source="34" target="11">
                    <mxGeometry width="50" height="50" relative="1" as="geometry">
                        <mxPoint x="885.8538603681384" y="472.265832506082" as="sourcePoint"/>
                        <mxPoint x="920" y="620" as="targetPoint"/>
                    </mxGeometry>
                </mxCell>
                <mxCell id="74" value="B_6" style="ellipse;whiteSpace=wrap;html=1;strokeColor=#00FFFF;" vertex="1" parent="1">
                    <mxGeometry x="800" y="920" width="80" height="80" as="geometry"/>
                </mxCell>
                <mxCell id="75" value="B_7" style="ellipse;whiteSpace=wrap;html=1;strokeColor=#00FFFF;" vertex="1" parent="1">
                    <mxGeometry x="800" y="1080" width="80" height="80" as="geometry"/>
                </mxCell>
                <mxCell id="76" value="B_8" style="ellipse;whiteSpace=wrap;html=1;strokeColor=#00FFFF;" vertex="1" parent="1">
                    <mxGeometry x="800" y="1240" width="80" height="80" as="geometry"/>
                </mxCell>
                <mxCell id="77" value="B_9" style="ellipse;whiteSpace=wrap;html=1;strokeColor=#00FFFF;" vertex="1" parent="1">
                    <mxGeometry x="800" y="1400" width="80" height="80" as="geometry"/>
                </mxCell>
                <mxCell id="78" value="B_9" style="ellipse;whiteSpace=wrap;html=1;strokeColor=#00FFFF;" vertex="1" parent="1">
                    <mxGeometry x="800" y="1560" width="80" height="80" as="geometry"/>
                </mxCell>
                <mxCell id="80" value="" style="endArrow=none;html=1;" edge="1" parent="1" source="11" target="74">
                    <mxGeometry width="50" height="50" relative="1" as="geometry">
                        <mxPoint x="885.7770876399964" y="747.8885438199982" as="sourcePoint"/>
                        <mxPoint x="974.222912360003" y="792.1114561800018" as="targetPoint"/>
                    </mxGeometry>
                </mxCell>
                <mxCell id="81" value="" style="endArrow=none;html=1;strokeColor=#00FFFF;" edge="1" parent="1" source="74" target="75">
                    <mxGeometry width="50" height="50" relative="1" as="geometry">
                        <mxPoint x="849.9999999999998" y="770" as="sourcePoint"/>
                        <mxPoint x="849.9999999999998" y="930" as="targetPoint"/>
                    </mxGeometry>
                </mxCell>
                <mxCell id="82" value="" style="endArrow=none;html=1;strokeColor=#00FFFF;" edge="1" parent="1" source="75" target="76">
                    <mxGeometry width="50" height="50" relative="1" as="geometry">
                        <mxPoint x="849.9999999999998" y="1010" as="sourcePoint"/>
                        <mxPoint x="849.9999999999998" y="1090" as="targetPoint"/>
                    </mxGeometry>
                </mxCell>
                <mxCell id="83" value="" style="endArrow=none;html=1;strokeColor=#00FFFF;" edge="1" parent="1" source="76" target="77">
                    <mxGeometry width="50" height="50" relative="1" as="geometry">
                        <mxPoint x="850" y="1260" as="sourcePoint"/>
                        <mxPoint x="849.9999999999998" y="1250" as="targetPoint"/>
                    </mxGeometry>
                </mxCell>
                <mxCell id="84" value="" style="endArrow=none;html=1;strokeColor=#00FFFF;" edge="1" parent="1" source="77" target="78">
                    <mxGeometry width="50" height="50" relative="1" as="geometry">
                        <mxPoint x="849.9999999999998" y="1330" as="sourcePoint"/>
                        <mxPoint x="849.9999999999998" y="1410" as="targetPoint"/>
                    </mxGeometry>
                </mxCell>
                <mxCell id="85" value="C_4" style="ellipse;whiteSpace=wrap;html=1;strokeColor=#FFFF00;" vertex="1" parent="1">
                    <mxGeometry x="480" y="40" width="80" height="80" as="geometry"/>
                </mxCell>
                <mxCell id="86" value="C_3" style="ellipse;whiteSpace=wrap;html=1;strokeColor=#FFFF00;" vertex="1" parent="1">
                    <mxGeometry x="480" y="-120" width="80" height="80" as="geometry"/>
                </mxCell>
                <mxCell id="87" value="C_2" style="ellipse;whiteSpace=wrap;html=1;strokeColor=#FFFF00;" vertex="1" parent="1">
                    <mxGeometry x="480" y="-280" width="80" height="80" as="geometry"/>
                </mxCell>
                <mxCell id="88" value="C_1" style="ellipse;whiteSpace=wrap;html=1;strokeColor=#FFFF00;" vertex="1" parent="1">
                    <mxGeometry x="600" y="-400" width="80" height="80" as="geometry"/>
                </mxCell>
                <mxCell id="89" value="" style="endArrow=none;html=1;" edge="1" parent="1" source="21" target="85">
                    <mxGeometry width="50" height="50" relative="1" as="geometry">
                        <mxPoint x="530" y="370" as="sourcePoint"/>
                        <mxPoint x="530" y="290" as="targetPoint"/>
                    </mxGeometry>
                </mxCell>
                <mxCell id="90" value="" style="endArrow=none;html=1;strokeColor=#FFFF00;" edge="1" parent="1" source="85" target="86">
                    <mxGeometry width="50" height="50" relative="1" as="geometry">
                        <mxPoint x="670" y="30" as="sourcePoint"/>
                        <mxPoint x="530" y="130" as="targetPoint"/>
                    </mxGeometry>
                </mxCell>
                <mxCell id="91" value="" style="endArrow=none;html=1;strokeColor=#FFFF00;" edge="1" parent="1" source="86" target="87">
                    <mxGeometry width="50" height="50" relative="1" as="geometry">
                        <mxPoint x="530" y="50.00000000000023" as="sourcePoint"/>
                        <mxPoint x="530" y="-30" as="targetPoint"/>
                    </mxGeometry>
                </mxCell>
                <mxCell id="92" value="" style="endArrow=none;html=1;strokeColor=#FFFF00;" edge="1" parent="1" source="87" target="88">
                    <mxGeometry width="50" height="50" relative="1" as="geometry">
                        <mxPoint x="530" y="-110" as="sourcePoint"/>
                        <mxPoint x="530" y="-190" as="targetPoint"/>
                    </mxGeometry>
                </mxCell>
                <mxCell id="94" value="objeto" style="ellipse;whiteSpace=wrap;html=1;" vertex="1" parent="1">
                    <mxGeometry x="1720" y="-640" width="80" height="80" as="geometry"/>
                </mxCell>
                <mxCell id="102" value="&lt;meta charset=&quot;utf-8&quot;&gt;&lt;div style=&quot;color: rgb(171, 178, 191); background-color: rgb(35, 39, 46); font-family: Menlo, Monaco, &amp;quot;Courier New&amp;quot;, monospace; font-weight: normal; font-size: 12px; line-height: 18px;&quot;&gt;&lt;div&gt;&lt;span style=&quot;color: #ef596f;&quot;&gt;nombre&lt;/span&gt;&lt;/div&gt;&lt;/div&gt;" style="text;whiteSpace=wrap;html=1;" vertex="1" parent="1">
                    <mxGeometry x="1840" y="-640" width="50" height="40" as="geometry"/>
                </mxCell>
                <mxCell id="103" value="&lt;div style=&quot;color: rgb(171, 178, 191); background-color: rgb(35, 39, 46); font-family: Menlo, Monaco, &amp;quot;Courier New&amp;quot;, monospace; font-weight: normal; font-size: 12px; line-height: 18px;&quot;&gt;&lt;div style=&quot;line-height: 18px;&quot;&gt;&lt;span style=&quot;color: #ef596f;&quot;&gt;tieneTrasbordo&lt;/span&gt;&lt;/div&gt;&lt;/div&gt;" style="text;whiteSpace=wrap;html=1;" vertex="1" parent="1">
                    <mxGeometry x="1840" y="-600" width="120" height="40" as="geometry"/>
                </mxCell>
                <mxCell id="104" value="&lt;div style=&quot;color: rgb(171, 178, 191); background-color: rgb(35, 39, 46); font-family: Menlo, Monaco, &amp;quot;Courier New&amp;quot;, monospace; font-weight: normal; font-size: 12px; line-height: 18px;&quot;&gt;&lt;div style=&quot;line-height: 18px;&quot;&gt;&lt;div style=&quot;line-height: 18px;&quot;&gt;&lt;span style=&quot;color: #ef596f;&quot;&gt;distanciaTrasbordo&lt;/span&gt;&lt;/div&gt;&lt;/div&gt;&lt;/div&gt;" style="text;whiteSpace=wrap;html=1;" vertex="1" parent="1">
                    <mxGeometry x="1840" y="-560" width="120" height="40" as="geometry"/>
                </mxCell>
                <mxCell id="105" value="&lt;div style=&quot;color: rgb(171, 178, 191); background-color: rgb(35, 39, 46); font-family: Menlo, Monaco, &amp;quot;Courier New&amp;quot;, monospace; font-weight: normal; font-size: 12px; line-height: 18px;&quot;&gt;&lt;div style=&quot;line-height: 18px;&quot;&gt;&lt;div style=&quot;line-height: 18px;&quot;&gt;&lt;div style=&quot;line-height: 18px;&quot;&gt;&lt;span style=&quot;color: #ef596f;&quot;&gt;listaEstaciones&lt;/span&gt;&lt;/div&gt;&lt;/div&gt;&lt;/div&gt;&lt;/div&gt;" style="text;whiteSpace=wrap;html=1;" vertex="1" parent="1">
                    <mxGeometry x="1840" y="-520" width="120" height="40" as="geometry"/>
                </mxCell>
                <mxCell id="106" value="&lt;meta charset=&quot;utf-8&quot;&gt;&lt;div style=&quot;color: rgb(171, 178, 191); background-color: rgb(35, 39, 46); font-family: Menlo, Monaco, &amp;quot;Courier New&amp;quot;, monospace; font-weight: normal; font-size: 12px; line-height: 18px;&quot;&gt;&lt;div&gt;&lt;span style=&quot;color: #ef596f;&quot;&gt;listaLineas&lt;/span&gt;&lt;/div&gt;&lt;/div&gt;" style="text;whiteSpace=wrap;html=1;" vertex="1" parent="1">
                    <mxGeometry x="1840" y="-480" width="110" height="40" as="geometry"/>
                </mxCell>
                <mxCell id="107" value="&lt;meta charset=&quot;utf-8&quot;&gt;&lt;div style=&quot;color: rgb(171, 178, 191); background-color: rgb(35, 39, 46); font-family: Menlo, Monaco, &amp;quot;Courier New&amp;quot;, monospace; font-weight: normal; font-size: 12px; line-height: 18px;&quot;&gt;&lt;div&gt;&lt;span style=&quot;color: #ef596f;&quot;&gt;heuristica&lt;/span&gt;&lt;/div&gt;&lt;/div&gt;" style="text;whiteSpace=wrap;html=1;" vertex="1" parent="1">
                    <mxGeometry x="2000" y="-640" width="110" height="40" as="geometry"/>
                </mxCell>
                <mxCell id="108" value="&lt;meta charset=&quot;utf-8&quot;&gt;&lt;div style=&quot;color: rgb(171, 178, 191); background-color: rgb(35, 39, 46); font-family: Menlo, Monaco, &amp;quot;Courier New&amp;quot;, monospace; font-weight: normal; font-size: 12px; line-height: 18px;&quot;&gt;&lt;div&gt;&lt;span style=&quot;color: #ef596f;&quot;&gt;distanciaAEstacion&lt;/span&gt;&lt;/div&gt;&lt;/div&gt;" style="text;whiteSpace=wrap;html=1;" vertex="1" parent="1">
                    <mxGeometry x="2000" y="-600" width="160" height="40" as="geometry"/>
                </mxCell>
                <mxCell id="109" value="&lt;meta charset=&quot;utf-8&quot;&gt;&lt;div style=&quot;color: rgb(171, 178, 191); background-color: rgb(35, 39, 46); font-family: Menlo, Monaco, &amp;quot;Courier New&amp;quot;, monospace; font-weight: normal; font-size: 12px; line-height: 18px;&quot;&gt;&lt;div&gt;&lt;span style=&quot;color: #ef596f;&quot;&gt;costeReal&lt;/span&gt;&lt;/div&gt;&lt;/div&gt;" style="text;whiteSpace=wrap;html=1;" vertex="1" parent="1">
                    <mxGeometry x="2000" y="-560" width="100" height="40" as="geometry"/>
                </mxCell>
                <mxCell id="110" value="&lt;meta charset=&quot;utf-8&quot;&gt;&lt;div style=&quot;color: rgb(171, 178, 191); background-color: rgb(35, 39, 46); font-family: Menlo, Monaco, &amp;quot;Courier New&amp;quot;, monospace; font-weight: normal; font-size: 12px; line-height: 18px;&quot;&gt;&lt;div&gt;&lt;span style=&quot;color: #ef596f;&quot;&gt;latitud&lt;/span&gt;&lt;/div&gt;&lt;/div&gt;" style="text;whiteSpace=wrap;html=1;" vertex="1" parent="1">
                    <mxGeometry x="2000" y="-520" width="80" height="40" as="geometry"/>
                </mxCell>
                <mxCell id="111" value="&lt;meta charset=&quot;utf-8&quot;&gt;&lt;div style=&quot;color: rgb(171, 178, 191); background-color: rgb(35, 39, 46); font-family: Menlo, Monaco, &amp;quot;Courier New&amp;quot;, monospace; font-weight: normal; font-size: 12px; line-height: 18px;&quot;&gt;&lt;div&gt;&lt;span style=&quot;color: #ef596f;&quot;&gt;longitud&lt;/span&gt;&lt;/div&gt;&lt;/div&gt;" style="text;whiteSpace=wrap;html=1;" vertex="1" parent="1">
                    <mxGeometry x="2000" y="-480" width="90" height="40" as="geometry"/>
                </mxCell>
                <mxCell id="112" value="" style="endArrow=none;html=1;" edge="1" parent="1">
                    <mxGeometry width="50" height="50" relative="1" as="geometry">
                        <mxPoint x="1720" y="-360" as="sourcePoint"/>
                        <mxPoint x="1800" y="-280" as="targetPoint"/>
                    </mxGeometry>
                </mxCell>
                <mxCell id="114" value="&lt;div style=&quot;color: rgb(171, 178, 191); background-color: rgb(35, 39, 46); font-family: Menlo, Monaco, &amp;quot;Courier New&amp;quot;, monospace; font-weight: normal; font-size: 12px; line-height: 18px;&quot;&gt;&lt;div&gt;&lt;span style=&quot;color: #ef596f;&quot;&gt;peso&lt;/span&gt;&lt;/div&gt;&lt;/div&gt;" style="text;whiteSpace=wrap;html=1;" vertex="1" parent="1">
                    <mxGeometry x="1840" y="-360" width="110" height="40" as="geometry"/>
                </mxCell>
                <mxCell id="115" value="&lt;div style=&quot;background-color: rgb(35, 39, 46); font-family: Menlo, Monaco, &amp;quot;Courier New&amp;quot;, monospace; font-weight: normal; font-size: 12px; line-height: 18px;&quot;&gt;&lt;font color=&quot;#ef596f&quot;&gt;EstacionAnterior&lt;/font&gt;&lt;/div&gt;" style="text;whiteSpace=wrap;html=1;" vertex="1" parent="1">
                    <mxGeometry x="1840" y="-320" width="110" height="40" as="geometry"/>
                </mxCell>
                <mxCell id="116" value="&lt;div style=&quot;background-color: rgb(35, 39, 46); font-family: Menlo, Monaco, &amp;quot;Courier New&amp;quot;, monospace; font-weight: normal; font-size: 12px; line-height: 18px;&quot;&gt;&lt;font color=&quot;#ef596f&quot;&gt;EstacionPosterior&lt;/font&gt;&lt;/div&gt;" style="text;whiteSpace=wrap;html=1;" vertex="1" parent="1">
                    <mxGeometry x="1840" y="-280" width="110" height="40" as="geometry"/>
                </mxCell>
            </root>
        </mxGraphModel>
    </diagram>
</mxfile>